<mxfile host="app.diagrams.net" modified="2022-05-16T09:24:53.628Z" agent="5.0 (Macintosh; Intel Mac OS X 10_15_7) AppleWebKit/537.36 (KHTML, like Gecko) Chrome/101.0.4951.64 Safari/537.36" etag="vriXatv4yvaN57r43LsL" version="18.0.5" type="github">
  <diagram id="c7PBCtFl-zln3Wk0FCVX" name="Page-1">
    <mxGraphModel dx="2201" dy="801" grid="1" gridSize="10" guides="1" tooltips="1" connect="1" arrows="1" fold="1" page="1" pageScale="1" pageWidth="827" pageHeight="1169" math="0" shadow="0">
      <root>
        <mxCell id="0" />
        <mxCell id="1" parent="0" />
        <mxCell id="g3wtZTWEXbKXUvDNdkZ--6" style="edgeStyle=orthogonalEdgeStyle;rounded=0;orthogonalLoop=1;jettySize=auto;html=1;fillColor=#f8cecc;strokeColor=#b85450;" edge="1" parent="1" source="g3wtZTWEXbKXUvDNdkZ--2" target="g3wtZTWEXbKXUvDNdkZ--3">
          <mxGeometry relative="1" as="geometry" />
        </mxCell>
        <mxCell id="g3wtZTWEXbKXUvDNdkZ--2" value="分支产品:&amp;nbsp;pr_product" style="rounded=1;whiteSpace=wrap;html=1;fillColor=#f8cecc;strokeColor=#b85450;" vertex="1" parent="1">
          <mxGeometry x="340" y="60" width="100" height="40" as="geometry" />
        </mxCell>
        <mxCell id="g3wtZTWEXbKXUvDNdkZ--8" style="edgeStyle=orthogonalEdgeStyle;rounded=0;orthogonalLoop=1;jettySize=auto;html=1;entryX=0.5;entryY=0;entryDx=0;entryDy=0;fillColor=#f8cecc;strokeColor=#b85450;" edge="1" parent="1" source="g3wtZTWEXbKXUvDNdkZ--3" target="g3wtZTWEXbKXUvDNdkZ--7">
          <mxGeometry relative="1" as="geometry" />
        </mxCell>
        <mxCell id="g3wtZTWEXbKXUvDNdkZ--3" value="计划:&lt;br&gt;pr_product_plan" style="rounded=1;whiteSpace=wrap;html=1;fillColor=#f8cecc;strokeColor=#b85450;" vertex="1" parent="1">
          <mxGeometry x="340" y="150" width="100" height="40" as="geometry" />
        </mxCell>
        <mxCell id="g3wtZTWEXbKXUvDNdkZ--7" value="险种分组:&lt;br&gt;pr_product_insurace_group" style="rounded=1;whiteSpace=wrap;html=1;fillColor=#f8cecc;strokeColor=#b85450;" vertex="1" parent="1">
          <mxGeometry x="300" y="250" width="180" height="40" as="geometry" />
        </mxCell>
        <mxCell id="g3wtZTWEXbKXUvDNdkZ--10" value="险种:&lt;br&gt;pr_product_insurance" style="rounded=1;whiteSpace=wrap;html=1;fillColor=#f8cecc;strokeColor=#b85450;" vertex="1" parent="1">
          <mxGeometry x="318" y="340" width="142" height="40" as="geometry" />
        </mxCell>
        <mxCell id="g3wtZTWEXbKXUvDNdkZ--15" style="edgeStyle=orthogonalEdgeStyle;rounded=0;orthogonalLoop=1;jettySize=auto;html=1;entryX=1;entryY=0.5;entryDx=0;entryDy=0;fillColor=#f8cecc;strokeColor=#b85450;" edge="1" parent="1" source="g3wtZTWEXbKXUvDNdkZ--11" target="g3wtZTWEXbKXUvDNdkZ--14">
          <mxGeometry relative="1" as="geometry" />
        </mxCell>
        <mxCell id="g3wtZTWEXbKXUvDNdkZ--11" value="责任:&lt;br&gt;pr_product_duty" style="rounded=1;whiteSpace=wrap;html=1;fillColor=#f8cecc;strokeColor=#b85450;" vertex="1" parent="1">
          <mxGeometry x="130" y="340" width="120" height="40" as="geometry" />
        </mxCell>
        <mxCell id="g3wtZTWEXbKXUvDNdkZ--13" value="责任标签:&lt;br&gt;pr_product_duty_tag" style="rounded=1;whiteSpace=wrap;html=1;fillColor=#f8cecc;strokeColor=#b85450;" vertex="1" parent="1">
          <mxGeometry x="130" y="430" width="120" height="40" as="geometry" />
        </mxCell>
        <mxCell id="g3wtZTWEXbKXUvDNdkZ--14" value="责任保障权益:&lt;br&gt;pr_product_duty_guarantee_responsibility" style="rounded=1;whiteSpace=wrap;html=1;fillColor=#f8cecc;strokeColor=#b85450;" vertex="1" parent="1">
          <mxGeometry x="-150" y="340" width="230" height="40" as="geometry" />
        </mxCell>
        <mxCell id="g3wtZTWEXbKXUvDNdkZ--18" value="" style="whiteSpace=wrap;html=1;fillColor=#fff2cc;strokeColor=#d6b656;" vertex="1" parent="1">
          <mxGeometry x="540" y="160" width="130" height="250" as="geometry" />
        </mxCell>
        <mxCell id="g3wtZTWEXbKXUvDNdkZ--19" value="字段解释" style="text;html=1;align=center;verticalAlign=middle;whiteSpace=wrap;rounded=0;fillColor=#f5f5f5;fontColor=#333333;strokeColor=#666666;" vertex="1" parent="1">
          <mxGeometry x="540" y="160" width="60" height="20" as="geometry" />
        </mxCell>
      </root>
    </mxGraphModel>
  </diagram>
</mxfile>
